<?xml version="1.0" encoding="utf-8"?>
<!-- Generator: Adobe Illustrator 16.0.0, SVG Export Plug-In . SVG Version: 6.00 Build 0)  -->
<!DOCTYPE svg PUBLIC "-//W3C//DTD SVG 1.1//EN" "http://www.w3.org/Graphics/SVG/1.1/DTD/svg11.dtd">
<svg version="1.1" xmlns="http://www.w3.org/2000/svg" xmlns:xlink="http://www.w3.org/1999/xlink" x="0px" y="0px" width="800px"
	 height="423px" viewBox="0 0 800 423" enable-background="new 0 0 800 423" xml:space="preserve">
<g id="Layer_3">
</g>
<g id="Layer_2">
</g>
<g id="Layer_1">
	<g>
		<path fill-rule="evenodd" clip-rule="evenodd" fill="#3F3E40" d="M400.024,382.794c6.185,12.212,21.171,16.943,33.389,10.76
			l121.075-86.062l-143.807,41.911l0,0C398.56,355.703,393.733,370.677,400.024,382.794L400.024,382.794z"/>
		<g>
			<path fill="#F2CF20" d="M201.66,103.516l105.242,107.644c26.506-14.506,56.713-22.619,88.916-22.619V40.099
				C323.342,40.099,256.349,63.636,201.66,103.516z"/>
			<path fill="#F4B61E" d="M407.733,40.099V188.54c31.522,0,61.287,8.113,87.218,22.619l103.453-107.644
				C544.586,63.636,478.793,40.099,407.733,40.099z"/>
		</g>
		<g>
			<path fill="#8CBE06" d="M58.594,381.534h148.32c0-29.654,3.688-51.197,15.634-76.299L92.608,232.73
				C68.618,279.432,58.594,325.388,58.594,381.534z"/>
			<path fill="#A1D10B" d="M296.161,218.704l-106.27-106.272c-38.92,30.409-67.662,62.963-90.395,107.218l128.635,74.254
				C243.756,261.069,265.79,238.132,296.161,218.704z"/>
		</g>
		<g>
			<path fill="#C22034" d="M741.406,381.534h-148.32c0-29.654-3.684-51.197-15.633-76.299l129.94-72.505
				C731.384,279.432,741.406,325.388,741.406,381.534z"/>
			<path fill="#C14F21" d="M503.839,218.704l106.273-106.272c38.92,30.409,67.66,62.963,90.393,107.218L571.87,293.903
				C556.244,261.069,534.214,238.132,503.839,218.704z"/>
		</g>
	</g>
</g>
</svg>
