<?xml version="1.0" encoding="utf-8"?>
<!-- Generator: Adobe Illustrator 16.0.0, SVG Export Plug-In . SVG Version: 6.00 Build 0)  -->
<!DOCTYPE svg PUBLIC "-//W3C//DTD SVG 1.1//EN" "http://www.w3.org/Graphics/SVG/1.1/DTD/svg11.dtd">
<svg version="1.1" xmlns="http://www.w3.org/2000/svg" xmlns:xlink="http://www.w3.org/1999/xlink" x="0px" y="0px" width="800px"
	 height="423px" viewBox="0 0 800 423" enable-background="new 0 0 800 423" xml:space="preserve">
<g id="Layer_3">
</g>
<g id="Layer_2">
</g>
<g id="Layer_1">
	<g>
		<path fill-rule="evenodd" clip-rule="evenodd" fill="#3F3E40" d="M400.024,377.342c13.632,1.267,25.615-8.9,26.884-22.535
			l-8.396-148.309l-41.08,144.046l0,0C376.312,364.16,386.418,376.217,400.024,377.342L400.024,377.342z"/>
		<g>
			<path fill="#F2CF20" d="M201.66,98.063l105.242,107.644c26.506-14.506,56.713-22.619,88.916-22.619V34.646
				C323.342,34.646,256.349,58.184,201.66,98.063z"/>
			<path fill="#F4B61E" d="M407.733,34.646v148.441c31.522,0,61.287,8.113,87.218,22.619L598.404,98.063
				C544.586,58.184,478.793,34.646,407.733,34.646z"/>
		</g>
		<g>
			<path fill="#8CBE06" d="M58.594,376.082h148.32c0-29.654,3.688-51.197,15.634-76.299L92.608,227.278
				C68.618,273.979,58.594,319.936,58.594,376.082z"/>
			<path fill="#A1D10B" d="M296.161,213.252l-106.27-106.272c-38.92,30.409-67.662,62.963-90.395,107.218l128.635,74.254
				C243.756,255.617,265.79,232.68,296.161,213.252z"/>
		</g>
		<g>
			<path fill="#C22034" d="M741.406,376.082h-148.32c0-29.654-3.684-51.197-15.633-76.299l129.94-72.505
				C731.384,273.979,741.406,319.936,741.406,376.082z"/>
			<path fill="#C14F21" d="M503.839,213.252l106.273-106.272c38.92,30.409,67.66,62.963,90.393,107.218L571.87,288.451
				C556.244,255.617,534.214,232.68,503.839,213.252z"/>
		</g>
	</g>
</g>
</svg>
